<svg xmlns="http://www.w3.org/2000/svg" xmlns:xlink="http://www.w3.org/1999/xlink" width="1452" zoomAndPan="magnify" viewBox="0 0 1089 94.499997" height="126" preserveAspectRatio="xMidYMid meet" version="1.0"><defs><g/></defs><g fill="#ffe9d9" fill-opacity="1"><g transform="translate(132.285972, 86.169073)"><g><path d="M 3.53125 -73.640625 L 31.359375 -73.640625 C 33.347656 -73.640625 34.894531 -73.617188 36 -73.578125 C 37.101562 -73.546875 37.96875 -73.53125 38.59375 -73.53125 C 39.21875 -73.53125 39.65625 -73.507812 39.90625 -73.46875 C 40.164062 -73.4375 40.476562 -73.382812 40.84375 -73.3125 C 45.1875 -72.644531 48.132812 -70.726562 49.6875 -67.5625 C 50.269531 -66.3125 50.707031 -64.046875 51 -60.765625 C 51.300781 -57.492188 51.453125 -53.539062 51.453125 -48.90625 L 51.453125 -29.03125 C 51.453125 -25.28125 51.335938 -21.640625 51.109375 -18.109375 C 50.890625 -14.578125 50.597656 -11.742188 50.234375 -9.609375 C 49.203125 -3.710938 45.960938 -0.582031 40.515625 -0.21875 C 40.296875 -0.21875 39.597656 -0.195312 38.421875 -0.15625 C 37.242188 -0.125 34.890625 -0.0703125 31.359375 0 L 3.53125 0 Z M 26.828125 -16.234375 C 28.890625 -16.234375 30.210938 -16.632812 30.796875 -17.4375 C 31.390625 -18.25 31.6875 -19.984375 31.6875 -22.640625 L 31.6875 -51.125 C 31.6875 -53.84375 31.390625 -55.601562 30.796875 -56.40625 C 30.210938 -57.21875 28.890625 -57.625 26.828125 -57.625 L 23.296875 -57.625 L 23.296875 -16.234375 Z M 26.828125 -16.234375 "/></g></g></g><g fill="#ffe9d9" fill-opacity="1"><g transform="translate(186.599069, 86.169073)"><g/></g></g><g fill="#ffe9d9" fill-opacity="1"><g transform="translate(212.762092, 86.169073)"><g><path d="M 3.53125 -73.640625 L 23.296875 -73.640625 L 23.296875 -44.828125 L 31.6875 -44.828125 L 31.6875 -73.640625 L 51.453125 -73.640625 L 51.453125 0 L 31.6875 0 L 31.6875 -28.8125 L 23.296875 -28.8125 L 23.296875 0 L 3.53125 0 Z M 3.53125 -73.640625 "/></g></g></g><g fill="#ffe9d9" fill-opacity="1"><g transform="translate(267.737547, 86.169073)"><g/></g></g><g fill="#ffe9d9" fill-opacity="1"><g transform="translate(293.900569, 86.169073)"><g><path d="M 3.53125 -58.625 C 3.53125 -61.863281 3.804688 -64.457031 4.359375 -66.40625 C 4.910156 -68.351562 5.773438 -69.84375 6.953125 -70.875 C 8.128906 -71.90625 9.953125 -72.625 12.421875 -73.03125 C 14.890625 -73.4375 18.550781 -73.640625 23.40625 -73.640625 L 31.46875 -73.640625 C 36.320312 -73.640625 39.984375 -73.4375 42.453125 -73.03125 C 44.921875 -72.625 46.742188 -71.90625 47.921875 -70.875 C 49.097656 -69.84375 49.960938 -68.351562 50.515625 -66.40625 C 51.066406 -64.457031 51.34375 -61.863281 51.34375 -58.625 L 51.34375 0 L 31.578125 0 L 31.578125 -15.5625 L 23.296875 -15.5625 L 23.296875 0 L 3.53125 0 Z M 31.578125 -31.90625 L 31.578125 -51.34375 C 31.578125 -55.90625 30.175781 -58.1875 27.375 -58.1875 C 24.65625 -58.1875 23.296875 -55.90625 23.296875 -51.34375 L 23.296875 -31.90625 Z M 31.578125 -31.90625 "/></g></g></g><g fill="#ffe9d9" fill-opacity="1"><g transform="translate(348.876024, 86.169073)"><g/></g></g><g fill="#ffe9d9" fill-opacity="1"><g transform="translate(375.039046, 86.169073)"><g><path d="M 8.9375 -57.625 L 0 -57.625 L 0 -73.640625 L 37.65625 -73.640625 L 37.65625 -57.625 L 28.703125 -57.625 L 28.703125 0 L 8.9375 0 Z M 8.9375 -57.625 "/></g></g></g><g fill="#ffe9d9" fill-opacity="1"><g transform="translate(412.682895, 86.169073)"><g/></g></g><g fill="#ffe9d9" fill-opacity="1"><g transform="translate(438.845918, 86.169073)"><g><path d="M 22.40625 0 C 20.050781 0 18.191406 -0.015625 16.828125 -0.046875 C 15.472656 -0.0859375 14.40625 -0.144531 13.625 -0.21875 C 12.851562 -0.289062 12.265625 -0.34375 11.859375 -0.375 C 11.460938 -0.414062 11.039062 -0.507812 10.59375 -0.65625 C 9.050781 -1.101562 7.78125 -1.820312 6.78125 -2.8125 C 5.789062 -3.8125 5 -5.285156 4.40625 -7.234375 C 3.820312 -9.179688 3.421875 -11.703125 3.203125 -14.796875 C 2.984375 -17.890625 2.875 -21.789062 2.875 -26.5 L 2.875 -50.015625 C 2.875 -51.046875 2.910156 -52.257812 2.984375 -53.65625 C 3.054688 -55.050781 3.144531 -56.410156 3.25 -57.734375 C 3.363281 -59.066406 3.472656 -60.320312 3.578125 -61.5 C 3.691406 -62.675781 3.820312 -63.554688 3.96875 -64.140625 C 4.488281 -66.722656 5.316406 -68.691406 6.453125 -70.046875 C 7.597656 -71.410156 9.203125 -72.390625 11.265625 -72.984375 C 11.703125 -73.054688 12.160156 -73.128906 12.640625 -73.203125 C 13.117188 -73.273438 13.742188 -73.347656 14.515625 -73.421875 C 15.285156 -73.492188 16.296875 -73.546875 17.546875 -73.578125 C 18.804688 -73.617188 20.425781 -73.640625 22.40625 -73.640625 L 35 -73.640625 L 35 -57.625 L 31.46875 -57.625 C 30.144531 -57.625 29.078125 -57.601562 28.265625 -57.5625 C 27.453125 -57.53125 26.785156 -57.476562 26.265625 -57.40625 C 25.753906 -57.332031 25.332031 -57.1875 25 -56.96875 C 24.675781 -56.75 24.363281 -56.492188 24.0625 -56.203125 C 23.40625 -55.535156 23.003906 -54.773438 22.859375 -53.921875 C 22.710938 -53.078125 22.640625 -51.332031 22.640625 -48.6875 L 22.640625 -24.953125 C 22.640625 -22.304688 22.726562 -20.554688 22.90625 -19.703125 C 23.09375 -18.859375 23.476562 -18.101562 24.0625 -17.4375 C 24.363281 -17.070312 24.675781 -16.796875 25 -16.609375 C 25.332031 -16.429688 25.753906 -16.304688 26.265625 -16.234375 C 26.785156 -16.160156 27.453125 -16.101562 28.265625 -16.0625 C 29.078125 -16.03125 30.144531 -16.015625 31.46875 -16.015625 L 35.546875 -16.015625 L 35.546875 0 Z M 22.40625 0 "/></g></g></g><g fill="#ffe9d9" fill-opacity="1"><g transform="translate(475.496205, 86.169073)"><g/></g></g><g fill="#ffe9d9" fill-opacity="1"><g transform="translate(501.659228, 86.169073)"><g><path d="M 3.53125 -73.640625 L 23.296875 -73.640625 L 23.296875 -44.828125 L 31.6875 -44.828125 L 31.6875 -73.640625 L 51.453125 -73.640625 L 51.453125 0 L 31.6875 0 L 31.6875 -28.8125 L 23.296875 -28.8125 L 23.296875 0 L 3.53125 0 Z M 3.53125 -73.640625 "/></g></g></g><g fill="#ffe9d9" fill-opacity="1"><g transform="translate(556.634706, 86.169073)"><g/></g></g><g fill="#ffe9d9" fill-opacity="1"><g transform="translate(582.797728, 86.169073)"><g><path d="M 3.53125 -58.625 C 3.53125 -61.863281 3.804688 -64.457031 4.359375 -66.40625 C 4.910156 -68.351562 5.773438 -69.84375 6.953125 -70.875 C 8.128906 -71.90625 9.953125 -72.625 12.421875 -73.03125 C 14.890625 -73.4375 18.550781 -73.640625 23.40625 -73.640625 L 31.46875 -73.640625 C 36.320312 -73.640625 39.984375 -73.4375 42.453125 -73.03125 C 44.921875 -72.625 46.742188 -71.90625 47.921875 -70.875 C 49.097656 -69.84375 49.960938 -68.351562 50.515625 -66.40625 C 51.066406 -64.457031 51.34375 -61.863281 51.34375 -58.625 L 51.34375 0 L 31.578125 0 L 31.578125 -15.5625 L 23.296875 -15.5625 L 23.296875 0 L 3.53125 0 Z M 31.578125 -31.90625 L 31.578125 -51.34375 C 31.578125 -55.90625 30.175781 -58.1875 27.375 -58.1875 C 24.65625 -58.1875 23.296875 -55.90625 23.296875 -51.34375 L 23.296875 -31.90625 Z M 31.578125 -31.90625 "/></g></g></g><g fill="#ffe9d9" fill-opacity="1"><g transform="translate(637.773206, 86.169073)"><g/></g></g><g fill="#ffe9d9" fill-opacity="1"><g transform="translate(663.936229, 86.169073)"><g><path d="M 16.015625 -19.09375 C 10.929688 -22.40625 7.101562 -27.007812 4.53125 -32.90625 C 4.007812 -34.15625 3.582031 -35.273438 3.25 -36.265625 C 2.925781 -37.265625 2.6875 -38.351562 2.53125 -39.53125 C 2.382812 -40.707031 2.273438 -42.085938 2.203125 -43.671875 C 2.128906 -45.253906 2.09375 -47.257812 2.09375 -49.6875 L 2.09375 -73.640625 L 21.859375 -73.640625 L 21.859375 -49.34375 C 21.859375 -46.695312 21.894531 -44.523438 21.96875 -42.828125 C 22.039062 -41.140625 22.207031 -39.722656 22.46875 -38.578125 C 22.726562 -37.441406 23.132812 -36.453125 23.6875 -35.609375 C 24.238281 -34.765625 24.953125 -33.828125 25.828125 -32.796875 C 26.710938 -33.828125 27.429688 -34.765625 27.984375 -35.609375 C 28.535156 -36.453125 28.941406 -37.441406 29.203125 -38.578125 C 29.460938 -39.722656 29.628906 -41.140625 29.703125 -42.828125 C 29.773438 -44.523438 29.8125 -46.695312 29.8125 -49.34375 L 29.8125 -73.640625 L 49.578125 -73.640625 L 49.578125 -49.6875 C 49.578125 -47.257812 49.535156 -45.253906 49.453125 -43.671875 C 49.378906 -42.085938 49.269531 -40.707031 49.125 -39.53125 C 48.976562 -38.351562 48.738281 -37.265625 48.40625 -36.265625 C 48.082031 -35.273438 47.660156 -34.15625 47.140625 -32.90625 C 45.890625 -30.03125 44.328125 -27.429688 42.453125 -25.109375 C 40.578125 -22.796875 38.347656 -20.789062 35.765625 -19.09375 L 35.765625 0 L 16.015625 0 Z M 16.015625 -19.09375 "/></g></g></g><g fill="#ffe9d9" fill-opacity="1"><g transform="translate(715.599915, 86.169073)"><g/></g></g><g fill="#ffe9d9" fill-opacity="1"><g transform="translate(741.762937, 86.169073)"><g><path d="M 3.53125 -58.625 C 3.53125 -61.863281 3.804688 -64.457031 4.359375 -66.40625 C 4.910156 -68.351562 5.773438 -69.84375 6.953125 -70.875 C 8.128906 -71.90625 9.953125 -72.625 12.421875 -73.03125 C 14.890625 -73.4375 18.550781 -73.640625 23.40625 -73.640625 L 31.46875 -73.640625 C 36.320312 -73.640625 39.984375 -73.4375 42.453125 -73.03125 C 44.921875 -72.625 46.742188 -71.90625 47.921875 -70.875 C 49.097656 -69.84375 49.960938 -68.351562 50.515625 -66.40625 C 51.066406 -64.457031 51.34375 -61.863281 51.34375 -58.625 L 51.34375 0 L 31.578125 0 L 31.578125 -15.5625 L 23.296875 -15.5625 L 23.296875 0 L 3.53125 0 Z M 31.578125 -31.90625 L 31.578125 -51.34375 C 31.578125 -55.90625 30.175781 -58.1875 27.375 -58.1875 C 24.65625 -58.1875 23.296875 -55.90625 23.296875 -51.34375 L 23.296875 -31.90625 Z M 31.578125 -31.90625 "/></g></g></g><g fill="#ffe9d9" fill-opacity="1"><g transform="translate(796.738415, 86.169073)"><g/></g></g><g fill="#ffe9d9" fill-opacity="1"><g transform="translate(822.901438, 86.169073)"><g><path d="M 3.640625 -56.859375 C 3.640625 -58.628906 3.617188 -60.191406 3.578125 -61.546875 C 3.546875 -62.910156 3.457031 -64.234375 3.3125 -65.515625 C 3.164062 -66.804688 2.960938 -68.097656 2.703125 -69.390625 C 2.441406 -70.679688 2.128906 -72.097656 1.765625 -73.640625 L 21.75 -73.640625 C 22.039062 -72.535156 22.296875 -71.578125 22.515625 -70.765625 C 22.742188 -69.960938 22.910156 -69.207031 23.015625 -68.5 C 23.128906 -67.800781 23.238281 -67.101562 23.34375 -66.40625 C 23.457031 -65.707031 23.550781 -64.878906 23.625 -63.921875 C 24.144531 -65.835938 24.734375 -67.421875 25.390625 -68.671875 C 26.054688 -69.921875 26.882812 -70.910156 27.875 -71.640625 C 28.875 -72.378906 30.125 -72.894531 31.625 -73.1875 C 33.132812 -73.488281 34.957031 -73.640625 37.09375 -73.640625 C 39.007812 -73.640625 40.628906 -73.566406 41.953125 -73.421875 C 43.273438 -73.273438 44.414062 -72.976562 45.375 -72.53125 C 46.332031 -72.09375 47.125 -71.523438 47.75 -70.828125 C 48.375 -70.128906 48.984375 -69.226562 49.578125 -68.125 C 49.941406 -67.382812 50.234375 -66.738281 50.453125 -66.1875 C 50.671875 -65.632812 50.835938 -64.785156 50.953125 -63.640625 C 51.066406 -62.503906 51.125 -60.867188 51.125 -58.734375 C 51.125 -56.597656 51.125 -53.582031 51.125 -49.6875 L 51.125 0 L 31.359375 0 L 31.359375 -50.890625 C 31.359375 -54.796875 30.03125 -56.75 27.375 -56.75 C 24.726562 -56.75 23.40625 -54.722656 23.40625 -50.671875 L 23.40625 0 L 3.640625 0 Z M 3.640625 -56.859375 "/></g></g></g><g fill="#ffe9d9" fill-opacity="1"><g transform="translate(877.545691, 86.169073)"><g/></g></g><g fill="#ffe9d9" fill-opacity="1"><g transform="translate(903.708713, 86.169073)"><g><path d="M 3.53125 -73.640625 L 23.296875 -73.640625 L 23.296875 0 L 3.53125 0 Z M 3.53125 -73.640625 "/></g></g></g><g fill="#ffe9d9" fill-opacity="1"><g transform="translate(930.538915, 86.169073)"><g/></g></g></svg>