<svg xmlns="http://www.w3.org/2000/svg" xmlns:xlink="http://www.w3.org/1999/xlink" width="1452" zoomAndPan="magnify" viewBox="0 0 1089 94.499997" height="126" preserveAspectRatio="xMidYMid meet" version="1.0"><defs><g/></defs><g fill="#ffe9d9" fill-opacity="1"><g transform="translate(49.729946, 84.271084)"><g><path d="M 55.4375 0 L 55.4375 -71.515625 L 1.71875 -71.515625 L 1.71875 -55.109375 L 5.25 -55.109375 L 5.25 -16.296875 L 1.71875 -16.296875 L 1.71875 0 Z M 37.53125 -16.296875 L 19.625 -16.296875 L 19.625 -55.109375 L 37.53125 -55.109375 Z M 37.53125 -16.296875 "/></g></g></g><g fill="#ffe9d9" fill-opacity="1"><g transform="translate(107.94572, 84.271084)"><g/></g></g><g fill="#ffe9d9" fill-opacity="1"><g transform="translate(145.469702, 84.271084)"><g><path d="M 56.5 0 L 56.5 -71.515625 L 38.59375 -71.515625 L 38.59375 -43.859375 L 20.6875 -43.859375 L 20.6875 -71.515625 L 2.78125 -71.515625 L 2.78125 0 L 20.6875 0 L 20.6875 -28.09375 L 38.59375 -28.09375 L 38.59375 0 Z M 56.5 0 "/></g></g></g><g fill="#ffe9d9" fill-opacity="1"><g transform="translate(204.757591, 84.271084)"><g/></g></g><g fill="#ffe9d9" fill-opacity="1"><g transform="translate(242.281561, 84.271084)"><g><path d="M 56.5 0 L 56.5 -71.515625 L 2.78125 -71.515625 L 2.78125 0 L 20.6875 0 L 20.6875 -19.9375 L 38.59375 -19.9375 L 38.59375 0 Z M 38.59375 -36.234375 L 20.6875 -36.234375 L 20.6875 -55.109375 L 38.59375 -55.109375 Z M 38.59375 -36.234375 "/></g></g></g><g fill="#ffe9d9" fill-opacity="1"><g transform="translate(301.56945, 84.271084)"><g/></g></g><g fill="#ffe9d9" fill-opacity="1"><g transform="translate(339.09342, 84.271084)"><g><path d="M 55.328125 -55.109375 L 55.328125 -71.515625 L 1.609375 -71.515625 L 1.609375 -55.109375 L 19.625 -55.109375 L 19.625 0 L 37.53125 0 L 37.53125 -55.109375 Z M 55.328125 -55.109375 "/></g></g></g><g fill="#ffe9d9" fill-opacity="1"><g transform="translate(396.02266, 84.271084)"><g/></g></g><g fill="#ffe9d9" fill-opacity="1"><g transform="translate(433.546653, 84.271084)"><g><path d="M 56.5 0 L 56.5 -16.296875 L 20.6875 -16.296875 L 20.6875 -55.109375 L 56.5 -55.109375 L 56.5 -71.515625 L 2.78125 -71.515625 L 2.78125 0 Z M 56.5 0 "/></g></g></g><g fill="#ffe9d9" fill-opacity="1"><g transform="translate(492.19128, 84.271084)"><g/></g></g><g fill="#ffe9d9" fill-opacity="1"><g transform="translate(529.71525, 84.271084)"><g><path d="M 56.5 0 L 56.5 -71.515625 L 38.59375 -71.515625 L 38.59375 -43.859375 L 20.6875 -43.859375 L 20.6875 -71.515625 L 2.78125 -71.515625 L 2.78125 0 L 20.6875 0 L 20.6875 -28.09375 L 38.59375 -28.09375 L 38.59375 0 Z M 56.5 0 "/></g></g></g><g fill="#ffe9d9" fill-opacity="1"><g transform="translate(589.003139, 84.271084)"><g/></g></g><g fill="#ffe9d9" fill-opacity="1"><g transform="translate(626.527109, 84.271084)"><g><path d="M 56.5 0 L 56.5 -71.515625 L 2.78125 -71.515625 L 2.78125 0 L 20.6875 0 L 20.6875 -19.9375 L 38.59375 -19.9375 L 38.59375 0 Z M 38.59375 -36.234375 L 20.6875 -36.234375 L 20.6875 -55.109375 L 38.59375 -55.109375 Z M 38.59375 -36.234375 "/></g></g></g><g fill="#ffe9d9" fill-opacity="1"><g transform="translate(685.814998, 84.271084)"><g/></g></g><g fill="#ffe9d9" fill-opacity="1"><g transform="translate(723.338968, 84.271084)"><g><path d="M 58.75 -55.109375 L 58.75 -71.515625 L 37.3125 -71.515625 L 37.3125 -43.953125 L 23.046875 -43.953125 L 23.046875 -71.515625 L 1.609375 -71.515625 L 1.609375 -55.109375 L 5.140625 -55.109375 L 5.140625 -28.203125 L 21.234375 -28.203125 L 21.234375 0 L 39.140625 0 L 39.140625 -28.203125 L 55.21875 -28.203125 L 55.21875 -55.109375 Z M 58.75 -55.109375 "/></g></g></g><g fill="#ffe9d9" fill-opacity="1"><g transform="translate(783.698961, 84.271084)"><g/></g></g><g fill="#ffe9d9" fill-opacity="1"><g transform="translate(821.222931, 84.271084)"><g><path d="M 56.5 0 L 56.5 -71.515625 L 2.78125 -71.515625 L 2.78125 0 L 20.6875 0 L 20.6875 -19.9375 L 38.59375 -19.9375 L 38.59375 0 Z M 38.59375 -36.234375 L 20.6875 -36.234375 L 20.6875 -55.109375 L 38.59375 -55.109375 Z M 38.59375 -36.234375 "/></g></g></g><g fill="#ffe9d9" fill-opacity="1"><g transform="translate(880.51082, 84.271084)"><g/></g></g><g fill="#ffe9d9" fill-opacity="1"><g transform="translate(918.03479, 84.271084)"><g><path d="M 55.328125 0 L 55.328125 -71.515625 L 1.609375 -71.515625 L 1.609375 -55.109375 L 5.140625 -55.109375 L 5.140625 0 L 19.515625 0 L 19.515625 -55.109375 L 37.421875 -55.109375 L 37.421875 0 Z M 55.328125 0 "/></g></g></g><g fill="#ffe9d9" fill-opacity="1"><g transform="translate(976.143319, 84.271084)"><g/></g></g><g fill="#ffe9d9" fill-opacity="1"><g transform="translate(1013.667289, 84.271084)"><g><path d="M 20.6875 0 L 20.6875 -71.515625 L 2.78125 -71.515625 L 2.78125 0 Z M 20.6875 0 "/></g></g></g><g fill="#ffe9d9" fill-opacity="1"><g transform="translate(1037.157589, 84.271084)"><g/></g></g></svg>